# xmcd CD database file
# Generated: Mon Oct 27 19:07:12 2003 by KSCD
# 
# Track frame offsets:
#       150
#       12102
#       24370
#       37960
#       65534
#       77966
#       90867
#       102934
#       118794
#       131914
#       141665
#       156060
#
# Disc length: 2343 seconds
#
# Revision: 1
# Processed by: cddbd v1.4PL0 Copyright (c) Steve Scherf et al.
# Submitted via: Kscd 1.3.3
#
DISCID=9809250c
DTITLE=Supercharge - The Early 80's Volume One
DYEAR=1900
DGENRE=
TTITLE0=01 Rumba Rudie
TTITLE1=She Dont't Know
TTITLE2=Red Dress
TTITLE3=Foxy
TTITLE4=CoolJerk
TTITLE5=Tell Me You Feel The Same
TTITLE6=Peaches And Cream
TTITLE7=Now Jump
TTITLE8=Show Me How To Do It
TTITLE9=No Place Like Home
TTITLE10=Bad Mouthin'
TTITLE11=One More Teardrop
EXTD=
EXTT0=
EXTT1=
EXTT2=
EXTT3=
EXTT4=
EXTT5=
EXTT6=
EXTT7=
EXTT8=
EXTT9=
EXTT10=
EXTT11=
PLAYORDER=
